<?xml version="1.0" encoding="utf-8"?>
<!-- Generator: Adobe Illustrator 15.0.0, SVG Export Plug-In . SVG Version: 6.00 Build 0)  -->
<!DOCTYPE svg PUBLIC "-//W3C//DTD SVG 1.1//EN" "http://www.w3.org/Graphics/SVG/1.1/DTD/svg11.dtd">
<svg version="1.1" id="Layer_1" xmlns="http://www.w3.org/2000/svg" xmlns:xlink="http://www.w3.org/1999/xlink" x="0px" y="0px"
	 width="595.279px" height="841.89px" viewBox="0 0 595.279 841.89" enable-background="new 0 0 595.279 841.89"
	 xml:space="preserve">
<path fill="#563D7C" d="M595.28,619.373c0,54.566-44.646,99.213-99.213,99.213H99.213C44.646,718.585,0,673.939,0,619.373V222.519
	c0-54.567,44.646-99.214,99.213-99.214h396.854c54.567,0,99.213,44.646,99.213,99.214V619.373z"/>
<g>
	<path fill="#FFFFFF" d="M93.952,506.101l145.775-13.712c6.01,17.32,14.433,29.712,25.258,37.166
		c10.825,7.459,25.258,11.186,43.3,11.186c19.721,0,35-4.2,45.824-12.612c8.418-6.241,12.631-14.044,12.631-23.414
		c0-10.566-5.537-18.735-16.6-24.503c-7.938-4.082-28.99-9.122-63.145-15.133c-51.001-8.885-86.418-17.116-106.264-24.688
		c-19.846-7.565-36.568-20.364-50.155-38.389c-13.593-18.019-20.387-38.569-20.387-61.64c0-25.235,7.335-46.981,22.011-65.248
		c14.67-18.262,34.876-31.899,60.619-40.909c25.737-9.01,60.258-13.52,103.558-13.52c45.701,0,79.439,3.489,101.212,10.464
		c21.768,6.979,39.928,17.805,54.486,32.475c14.551,14.676,26.639,34.521,36.262,59.537l-139.279,13.711
		c-3.607-12.268-9.623-21.289-18.041-27.062c-11.547-7.696-25.501-11.547-41.856-11.547c-16.598,0-28.686,2.943-36.263,8.829
		c-7.578,5.886-11.366,13.029-11.366,21.436c0,9.37,4.809,16.451,14.433,21.255c9.618,4.804,30.546,9.128,62.785,12.973
		c48.83,5.525,85.154,13.216,108.969,23.07c23.816,9.855,42.037,23.911,54.666,42.173c12.629,18.267,18.943,38.332,18.943,60.196
		c0,22.112-6.676,43.621-20.025,64.526c-13.352,20.905-34.402,37.549-63.145,49.924c-28.748,12.37-67.898,18.561-117.451,18.561
		c-70,0-119.856-9.979-149.563-29.949C121.431,571.292,102.369,542.906,93.952,506.101z"/>
</g>
</svg>
